# xmcd
#
# Track frame offsets: 
#        150
#        11472
#        23875
#        36927
#        51577
#        63275
#        72533
#        81723
#        94321
#        106366
#        117487
#        128199
#        139450
#        149320
#        162807
#        174653
#        184038
#        192756
#        205697
#        217428
#        228794
#        244149
#        254470
#        265477
#        275832
#
# Disc length: 3862 seconds
#
# Revision: 0
# Processed by: cddbd v1.5.2PL0 Copyright (c) Steve Scherf et al.
# Submitted via: ExactAudioCopyFreeDBPlugin 1.0
#
DISCID=8f0f1419
DTITLE=Various Artist - Vintage Collection - Rhythm and Blues 3
DYEAR=2015
DGENRE=Rythm and Blues
TTITLE0=John Lee Hooker - Boom Boom
TTITLE1=Sam Cooke - You Send Me
TTITLE2=The Contours - Do You Love Me
TTITLE3=Aretha Franklin - Try A Little Tenderness
TTITLE4=The Mar-Keys - Last Night
TTITLE5=Gladys Knight and The Pips - Every Beat Of My Heart
TTITLE6=The Shirelles - Dedicated To The One I Love
TTITLE7=Etta James - Something's Got A Hold On Me
TTITLE8=The Platters - The Great Pretender
TTITLE9=Timmy Yuro - Hurt 
TTITLE10=Fats Domino - Blueberry Hill
TTITLE11=LaVern Baker - See See Rider
TTITLE12=The Chordettes - Lollipop
TTITLE13=Ben E. King - Spanish Harlem
TTITLE14=Marv Johnson - You Got What It Takes
TTITLE15=Jimmy Jones - Good Timin'
TTITLE16=Pancho Villa - Baby Cakes
TTITLE17=Ray Charles - Let The Good Times Roll
TTITLE18=Brice Coefield - Cha-Cha Twist
TTITLE19=Gene Chandler - You Threw A Lucky Punch
TTITLE20=Chuck Jackson - Any Day Now
TTITLE21=Erma Franklin - It's Over
TTITLE22=Patti LaBelle and The Bluebells - I Sold My Heart To The Junkma
TTITLE22=n
TTITLE23=Junior Walker and The Allstars - Twist Lackawanna
TTITLE24=Solomon Burke - I'm Hanging Up My Heart For You
EXTD=
EXTT0=
EXTT1=
EXTT2=
EXTT3=
EXTT4=
EXTT5=
EXTT6=
EXTT7=
EXTT8=
EXTT9=
EXTT10=
EXTT11=
EXTT12=
EXTT13=
EXTT14=
EXTT15=
EXTT16=
EXTT17=
EXTT18=
EXTT19=
EXTT20=
EXTT21=
EXTT22=
EXTT23=
EXTT24=
PLAYORDER=
